<?xml version="1.0" encoding="UTF-8" standalone="no"?>
<svg
   xmlns:dc="http://purl.org/dc/elements/1.1/"
   xmlns:cc="http://creativecommons.org/ns#"
   xmlns:rdf="http://www.w3.org/1999/02/22-rdf-syntax-ns#"
   xmlns:svg="http://www.w3.org/2000/svg"
   xmlns="http://www.w3.org/2000/svg"
   xmlns:sodipodi="http://sodipodi.sourceforge.net/DTD/sodipodi-0.dtd"
   xmlns:inkscape="http://www.inkscape.org/namespaces/inkscape"
   version="1.1"
   id="Layer_1"
   x="0px"
   y="0px"
   viewBox="0 0 1920 1080"
   style="enable-background:new 0 0 1920 1080;"
   xml:space="preserve"
   sodipodi:docname="USPlayFiverrLogo01_2.svg"
   inkscape:version="1.0.1 (3bc2e813f5, 2020-09-07)"><metadata
   id="metadata50"><rdf:RDF><cc:Work
       rdf:about=""><dc:format>image/svg+xml</dc:format><dc:type
         rdf:resource="http://purl.org/dc/dcmitype/StillImage" /><dc:title /></cc:Work></rdf:RDF></metadata><defs
   id="defs48"><linearGradient
   id="path6252_5_"
   gradientUnits="userSpaceOnUse"
   x1="-70.776901"
   y1="526.0575"
   x2="-76.975998"
   y2="528.77478"
   gradientTransform="matrix(-1.8941,0.7258,-0.7258,-1.8941,506.8248,1627.1179)"><stop
     offset="0"
     style="stop-color:#EEEEEC"
     id="stop1000" /><stop
     offset="1"
     style="stop-color:#D3D7CF"
     id="stop1002" /></linearGradient><linearGradient
   id="path6252_6_"
   gradientUnits="userSpaceOnUse"
   x1="-169.0137"
   y1="488.41479"
   x2="-175.21291"
   y2="491.13211"
   gradientTransform="matrix(1.8941,0.7258,0.7258,-1.8941,506.5671,1627.1179)"><stop
     offset="0"
     style="stop-color:#EEEEEC"
     id="stop1013" /><stop
     offset="1"
     style="stop-color:#D3D7CF"
     id="stop1015" /></linearGradient>
	
	

		
		
		
		
		
		
		
		
		
		
		
		
		
	<linearGradient
   id="linearGradient1108"
   gradientUnits="userSpaceOnUse"
   x1="-169.0137"
   y1="488.41479"
   x2="-175.21291"
   y2="491.13211"
   gradientTransform="matrix(1.8941,0.7258,0.7258,-1.8941,506.5671,1627.1179)"><stop
     offset="0"
     style="stop-color:#EEEEEC"
     id="stop2790-4" /><stop
     offset="1"
     style="stop-color:#D3D7CF"
     id="stop2792-8" /></linearGradient><linearGradient
   id="SVGID_1_-1"
   gradientUnits="userSpaceOnUse"
   x1="-69.353996"
   y1="535.70209"
   x2="1979.438"
   y2="544.25647"
   gradientTransform="translate(23.738438,46.536867)"><stop
     offset="0"
     style="stop-color:#183A67"
     id="stop4-2" /><stop
     offset="0.5307"
     style="stop-color:#528CB2"
     id="stop6-5" /><stop
     offset="1"
     style="stop-color:#1E4473"
     id="stop8-7" /></linearGradient></defs><sodipodi:namedview
   pagecolor="#ffffff"
   bordercolor="#666666"
   borderopacity="1"
   objecttolerance="10"
   gridtolerance="10"
   guidetolerance="10"
   inkscape:pageopacity="0"
   inkscape:pageshadow="2"
   inkscape:window-width="2560"
   inkscape:window-height="1411"
   id="namedview46"
   showgrid="false"
   showguides="true"
   inkscape:guide-bbox="true"
   inkscape:snap-global="false"
   inkscape:snap-grids="true"
   inkscape:lockguides="false"
   inkscape:zoom="0.5"
   inkscape:cx="958.59544"
   inkscape:cy="635.77466"
   inkscape:window-x="1911"
   inkscape:window-y="-9"
   inkscape:window-maximized="1"
   inkscape:current-layer="Layer_1"
   inkscape:document-rotation="0" />
<style
   type="text/css"
   id="style2">
	.st0{fill:url(#SVGID_1_);}
	.st1{fill:#FFFFFF;}
</style>
<linearGradient
   id="SVGID_1_"
   gradientUnits="userSpaceOnUse"
   x1="-69.354"
   y1="535.7021"
   x2="1979.438"
   y2="544.2565">
	<stop
   offset="0"
   style="stop-color:#183A67"
   id="stop4" />
	<stop
   offset="0.5307"
   style="stop-color:#528CB2"
   id="stop6" />
	<stop
   offset="1"
   style="stop-color:#1E4473"
   id="stop8" />
</linearGradient>

<rect
   x="-39.761562"
   y="-26.963133"
   class="st0"
   width="2047"
   height="1227"
   id="rect11"
   style="fill:url(#SVGID_1_-1)" /><g
   id="g1186"
   style="stroke:#9ca2a6;stroke-opacity:1;stroke-width:1;stroke-miterlimit:4;stroke-dasharray:none"><path
     class="st1"
     d="m 825.54,553.39 v -92.22 c 0,-16.42 1.86,-16.63 7.39,-17.24 l 1.7,-0.19 v -5.55 h -48.87 v 5.58 l 1.73,0.16 c 6.39,0.59 8.51,3.06 8.51,16.47 v 76.76 c 0,12.45 -7.24,35.99 -34.63,35.99 -19.55,0 -30.77,-12.48 -30.77,-34.25 v -81.6 c 0,-8.12 1.15,-12.66 7.21,-13.38 l 1.68,-0.2 v -5.54 h -48.48 v 5.64 l 1.79,0.11 c 4.63,0.28 8.45,1.49 8.45,13.56 V 536 c 0,40.08 29.25,54.31 54.31,54.31 23.07,0 35.7,-8.8 42.58,-17.84 0.46,5.28 1.52,10.19 2.18,12.57 l 0.39,1.4 h 35.26 v -5.67 l -1.83,-0.08 c -6.91,-0.3 -8.6,-5.66 -8.6,-27.3 z"
     id="path21"
     style="fill:#f3f3f5;fill-opacity:1;stroke:#9ca2a6;stroke-opacity:1;stroke-width:1;stroke-miterlimit:4;stroke-dasharray:none" /><path
     class="st1"
     d="M 881.4,567.12 V 422.27 l -37.57,8.04 1.05,5.79 1.85,-0.3 c 2.58,-0.42 4.37,-0.17 5.46,0.76 2.37,2.02 2.57,7.88 2.57,14.76 v 115.23 c 0,10.12 -0.6,13.7 -7.3,14.14 l -1.79,0.12 v 5.63 h 45.58 v -5.75 h -1.91 c -3.4,-0.01 -7.94,-1.41 -7.94,-13.57 z"
     id="path23"
     style="fill:#f3f3f5;fill-opacity:1;stroke:#9ca2a6;stroke-opacity:1;stroke-width:1;stroke-miterlimit:4;stroke-dasharray:none" /><path
     class="st1"
     d="m 960.98,570.38 c -5.38,3.65 -10.77,5.66 -15.17,5.66 -3.11,0 -5.39,-0.79 -6.99,-2.42 -3.53,-3.59 -3.41,-10.82 -3.31,-17.2 0.02,-1.04 0.03,-2.06 0.03,-3.03 v -54.35 h 24.94 v -13.1 h -24.94 v -38.23 l -25.86,17.47 v 20.76 h -15.85 v 13.1 h 14.89 v 60.54 c 0,20.41 9.23,30.33 28.2,30.33 8.45,0 20.18,-1.74 26.25,-5.07 l 0.8,-0.44 2.43,-13.6 -4.77,-0.87 z"
     id="path25"
     style="fill:#f3f3f5;fill-opacity:1;stroke:#9ca2a6;stroke-opacity:1;stroke-width:1;stroke-miterlimit:4;stroke-dasharray:none" /><path
     class="st1"
     d="m 1025.08,482.08 c -11.53,0 -18.83,7.05 -22.84,12.71 v -11.98 l -34.48,7.03 1.05,5.76 1.8,-0.24 c 2.01,-0.27 3.3,-0.04 4.19,0.73 1.84,1.61 2.74,6 2.74,13.42 v 57.04 c 0,12.16 -3.05,12.97 -7.67,14.2 l -1.42,0.38 v 5.31 h 45.58 v -5.41 l -1.54,-0.3 c -5.54,-1.08 -8.12,-5.4 -8.12,-13.59 V 527.5 c 0,-13.17 6.45,-26.51 18.78,-26.51 5.23,0 8.66,2.24 10.18,6.64 l 0.44,1.28 h 5.98 v -22.5 l -0.91,-0.56 c -4.12,-2.54 -8.62,-3.77 -13.76,-3.77 z"
     id="path27"
     style="fill:#f3f3f5;fill-opacity:1;stroke:#9ca2a6;stroke-opacity:1;stroke-width:1;stroke-miterlimit:4;stroke-dasharray:none" /><path
     class="st1"
     d="m 1125.97,555.91 v -33.25 c 0,-15.7 0,-39.42 -41.93,-39.42 -19.45,0 -33.06,9.15 -33.19,9.24 l -0.73,0.51 -1.77,21.23 5.42,0.83 1.07,-1.47 c 7.65,-10.67 16.76,-16.08 27.07,-16.08 11.71,0 17.04,8.03 17.04,15.49 v 13.37 c -39,0.35 -58.78,11.46 -58.78,33.03 0,18.19 13.8,29.94 35.17,29.94 11.96,0 21.75,-5.25 27.12,-11 0.48,2.24 0.88,4.6 1.15,6.46 l 0.23,1.64 h 33.53 v -5.6 l -1.75,-0.15 c -7.21,-0.59 -9.65,-6.85 -9.65,-24.77 z m -54.55,-9.43 c 5.87,-5.85 17.13,-6.27 25.48,-6.27 0.71,0 1.39,0 2.05,0.01 v 12.6 c 0,6.14 -3.16,22.07 -17.62,22.07 -8.99,0 -13.95,-6.19 -13.95,-17.42 0.01,-4.7 1.33,-8.29 4.04,-10.99 z"
     id="path29"
     style="fill:#f3f3f5;fill-opacity:1;stroke:#9ca2a6;stroke-opacity:1;stroke-width:1;stroke-miterlimit:4;stroke-dasharray:none" /></g><g
   id="g1192"
   style="stroke:#9ca2a6;stroke-opacity:1;stroke-width:1;stroke-miterlimit:4;stroke-dasharray:none"><path
     class="st1"
     d="m 1203.64,500.49 c -1.85,-1.14 -3.59,-2.22 -5.04,-3.2 -2.86,-1.94 -5.53,-3.66 -8.11,-5.33 -12.39,-7.99 -19.86,-12.82 -19.86,-22.87 0,-9.08 6.2,-18.78 23.61,-18.78 14.69,0 25.27,8.19 28.3,21.9 l 0.33,1.5 h 5.96 v -35.33 h -5.49 l -0.57,0.67 c -0.31,0.36 -1.58,0.52 -3.81,0.5 h -0.54 c -1.77,0 -4.01,-0.5 -6.86,-1.13 -4.82,-1.07 -11.42,-2.54 -20.4,-2.54 -25.71,0 -43.67,16.85 -43.67,40.96 0,24.28 15.38,33.91 31.67,44.11 1.84,1.15 3.7,2.32 5.55,3.51 17.75,11.47 29.48,19.04 29.48,31.46 0,10.64 -11.22,18.97 -25.54,18.97 -18.28,0 -33.8,-12.56 -36.82,-24.28 l -0.37,-1.43 h -6.01 l 5.39,37.27 h 5.58 l 0.49,-0.73 c 0.8,-0.43 3.81,-0.43 5.45,-0.43 0.53,0 1.85,0.41 3.25,0.84 4.16,1.28 11.12,3.42 21.69,3.42 47.16,0 50.83,-31.21 50.83,-40.77 -0.02,-26.93 -21.6,-40.3 -34.49,-48.29 z"
     id="path31"
     style="fill:#f3f3f5;fill-opacity:1;stroke:#9ca2a6;stroke-opacity:1;stroke-width:1;stroke-miterlimit:4;stroke-dasharray:none" /><path
     class="st1"
     d="m 1311.49,570.38 c -5.38,3.65 -10.77,5.66 -15.17,5.66 -3.1,0 -5.39,-0.79 -6.99,-2.42 -3.53,-3.59 -3.41,-10.82 -3.31,-17.2 0.02,-1.04 0.03,-2.06 0.03,-3.03 v -54.35 h 24.94 v -13.1 h -24.94 v -38.23 l -25.86,17.47 v 20.76 h -15.85 v 13.1 h 14.89 v 60.54 c 0,20.41 9.23,30.33 28.2,30.33 8.45,0 20.18,-1.74 26.25,-5.07 l 0.8,-0.44 2.43,-13.6 -4.77,-0.87 z"
     id="path33"
     style="fill:#f3f3f5;fill-opacity:1;stroke:#9ca2a6;stroke-opacity:1;stroke-width:1;stroke-miterlimit:4;stroke-dasharray:none" /><path
     class="st1"
     d="m 1379.89,578.33 c 0.48,2.24 0.88,4.6 1.15,6.46 l 0.24,1.64 h 33.53 v -5.6 l -1.75,-0.15 c -7.22,-0.6 -9.66,-6.85 -9.66,-24.78 v -33.25 c 0,-15.7 0,-39.42 -41.93,-39.42 -19.45,0 -33.06,9.15 -33.19,9.24 l -0.73,0.51 -1.77,21.23 5.42,0.83 1.07,-1.47 c 7.65,-10.67 16.76,-16.08 27.07,-16.08 11.71,0 17.04,8.03 17.04,15.49 v 13.37 c -39,0.35 -58.78,11.46 -58.78,33.03 0,18.19 13.8,29.94 35.16,29.94 11.97,0.01 21.76,-5.23 27.13,-10.99 z m -31.04,-31.85 c 5.87,-5.85 17.13,-6.27 25.48,-6.27 0.71,0 1.39,0 2.05,0.01 v 12.6 c 0,6.14 -3.16,22.07 -17.62,22.07 -8.99,0 -13.95,-6.19 -13.95,-17.42 0.01,-4.7 1.33,-8.29 4.04,-10.99 z"
     id="path35"
     style="fill:#f3f3f5;fill-opacity:1;stroke:#9ca2a6;stroke-opacity:1;stroke-width:1;stroke-miterlimit:4;stroke-dasharray:none" /><path
     class="st1"
     d="m 1492.59,485.84 c -4.12,-2.53 -8.62,-3.76 -13.76,-3.76 -11.53,0 -18.83,7.05 -22.84,12.71 v -11.98 l -34.48,7.03 1.05,5.76 1.81,-0.24 c 2.01,-0.27 3.3,-0.04 4.19,0.73 1.84,1.61 2.74,6 2.74,13.42 v 57.04 c 0,12.16 -3.05,12.97 -7.67,14.2 l -1.42,0.38 v 5.31 h 45.58 v -5.41 l -1.54,-0.3 c -5.54,-1.08 -8.12,-5.4 -8.12,-13.59 V 527.5 c 0,-13.17 6.45,-26.51 18.78,-26.51 5.23,0 8.66,2.24 10.18,6.64 l 0.44,1.28 h 5.98 v -22.5 z"
     id="path37"
     style="fill:#f3f3f5;fill-opacity:1;stroke:#9ca2a6;stroke-opacity:1;stroke-width:1;stroke-miterlimit:4;stroke-dasharray:none" /></g><path
   class="st1"
   d="M 645.85686,529.44454 438.68881,409.86429 c -18.73024,-10.82583 -42.13475,2.6789 -42.13475,24.28647 v 239.24867 c 0,21.60757 23.40451,35.1123 42.13475,24.28647 l 113.52792,-65.53928 c -0.0992,-0.63941 -0.24254,-1.26779 -0.44097,-1.9072 -1.56545,-0.0992 -3.26318,-0.82682 -4.44278,-2.05051 l -10.5833,-10.5833 c -0.48507,-2.87734 0.34175,-5.89799 2.53558,-8.04771 1.9954,-2.05052 5.02706,-3.02066 8.04772,-2.43637 l 10.43998,10.48408 c 2.19383,2.14973 2.77811,5.31369 1.70876,8.04771 0.19844,0.63941 0.38585,1.3119 0.58429,1.9513 l 85.77983,-49.49897 c 18.73023,-10.82583 18.73023,-37.83528 0.0111,-48.66111 z M 460.43969,562.363 c -10.09823,-10.09823 -11.3109,-25.51016 -2.6348,-34.14216 8.77532,-8.77532 24.08803,-7.60674 34.28548,2.6348 4.58609,4.68532 7.36421,10.48408 8.09181,16.13953 -6.05232,0.58428 -11.70777,3.21908 -16.04031,7.46343 -4.28844,4.28844 -6.97837,10.09823 -7.46343,16.09543 -5.75467,-0.83785 -11.50934,-3.46162 -16.23875,-8.19103 z m 76.17769,44.516 c -2.14972,2.19382 -3.3624,4.82862 -3.60493,7.70596 l -48.85956,-39.11411 c -0.82682,-5.75467 1.12448,-11.50933 5.3137,-15.75367 4.10103,-4.10103 9.99901,-5.9972 15.75368,-5.26961 l 39.11411,48.95879 c -2.88836,0.25355 -5.66648,1.42212 -7.717,3.47264 z"
   id="path41"
   style="fill:#f3f3f5;fill-opacity:1;stroke:#9ca2a6;stroke-width:1;stroke-miterlimit:4;stroke-dasharray:none;stroke-opacity:1" />
<path
   class="st1"
   d="m 928.80687,624.50187 h -19.81802 v 1.02228 c 3.78428,0.60978 5.00389,2.85164 5.00389,7.87339 v 58.52135 c 0,5.41633 -1.82942,7.4609 -5.00389,7.8734 v 1.02228 h 23.60229 v -1.02228 c -3.0669,-0.4125 -5.00379,-1.63208 -5.00379,-8.17829 v -61.17571 c 1.32718,-0.19728 4.28643,-0.19728 5.20104,-0.19728 6.74353,0 15.72884,4.69893 15.72884,15.22667 0,9.50547 -7.24567,14.59895 -14.81413,14.59895 -1.73973,0 -2.04454,0 -2.85169,-0.19728 l 3.06691,6.13372 c 0.41246,0.10761 2.04454,0.30488 4.08908,0.30488 14.59901,0 24.62456,-8.48317 24.62456,-20.84027 -0.0183,-23.01038 -28.92886,-20.96581 -33.82509,-20.96581 z"
   id="path13-5"
   style="fill:#f3f3f5;fill-opacity:1;stroke:#9ca2a6;stroke-width:1;stroke-miterlimit:4;stroke-dasharray:none;stroke-opacity:1" /><path
   class="st1"
   d="m 1036.0639,694.8388 h -8.3754 c -3.9816,0 -5.9185,-0.91468 -5.9185,-5.00382 v -56.69199 c 0,-6.7435 3.0669,-7.65818 4.8066,-7.65818 v -1.02228 h -23.7996 v 1.02228 c 3.3718,0 5.4163,2.85164 5.4163,7.8734 v 58.52134 c 0,5.41633 -1.8473,7.65818 -4.8066,7.8734 v 1.02228 h 47.2941 l 5.1114,-11.74732 -1.0223,-0.5201 c -2.762,4.80654 -9.918,6.33099 -18.706,6.33099 z"
   id="path15-3"
   style="fill:#f3f3f5;fill-opacity:1;stroke:#9ca2a6;stroke-width:1;stroke-miterlimit:4;stroke-dasharray:none;stroke-opacity:1" /><path
   class="st1"
   d="m 1161.458,694.45298 -26.5615,-69.87409 h -14.4016 v 1.02228 c 0.7173,0 4.2864,0.71739 2.5467,5.41632 l -23.6919,63.93767 c -1.0223,2.86958 -3.1745,4.89621 -5.4164,4.89621 v 1.02228 h 14.2941 v -1.02228 c -2.3494,0 -3.3718,-2.54675 -2.4571,-5.11143 l 7.156,-19.81799 h 26.8664 l 7.0484,19.5131 c 1.0223,2.85164 0.6098,5.41632 -2.8517,5.41632 v 1.02228 h 22.9746 v -1.02228 c -2.8517,0.018 -4.3761,-2.33153 -5.506,-5.39839 z m -46.4692,-25.21637 11.2452,-31.15279 11.55,31.15279 z"
   id="path17-6"
   style="fill:#f3f3f5;fill-opacity:1;stroke:#9ca2a6;stroke-width:1;stroke-miterlimit:4;stroke-dasharray:none;stroke-opacity:1" /><path
   class="st1"
   d="m 1266.743,625.52414 c 2.9593,0 5.0039,2.65436 2.6544,7.04839 l -15.7288,29.71802 -16.9484,-30.74031 c -1.4348,-2.65435 -0.4126,-6.0261 2.7619,-6.0261 v -1.02228 h -25.1267 v 1.02228 c 1.3272,0 3.4794,0.7174 5.0039,3.37175 l 23.4946,40.74793 v 23.69192 c 0,4.08914 -2.8696,6.22338 -4.8962,6.4386 v 1.02228 h 23.4946 v -1.02228 c -3.3718,0 -5.2191,-3.37175 -5.2191,-6.33099 v -23.08213 l 20.8403,-38.50609 c 2.1522,-4.08914 3.4794,-5.91849 6.7435,-6.33099 v -1.02228 h -17.056 v 1.02228 z"
   id="path19-4"
   style="fill:#f3f3f5;fill-opacity:1;stroke:#9ca2a6;stroke-width:1;stroke-miterlimit:4;stroke-dasharray:none;stroke-opacity:1" /><path
   id="path6252_3_-6-9"
   inkscape:connector-curvature="0"
   class="st139"
   d="m 817.91011,640.86141 c 0,0 15.1874,3.35722 28.45645,7.83353 l 7.03419,18.54466 c -5.27564,1.27896 -12.30983,2.39802 -21.74203,3.35723 -84.25036,8.47301 -83.61091,-30.21503 -83.61091,-30.21503 z"
   style="fill:#f3f3f5;fill-opacity:1;stroke:#9ca2a6;stroke-width:1;stroke-miterlimit:4;stroke-dasharray:none;stroke-opacity:1" /><path
   id="path6252_3_-6-5-3"
   inkscape:connector-curvature="0"
   class="st139"
   d="m 1364.1281,641.43939 c 0,0 -15.1875,3.35722 -28.4565,7.83353 l -7.0342,18.54466 c 5.2757,1.27896 12.3098,2.39803 21.742,3.35723 84.2504,8.47301 83.6109,-30.21503 83.6109,-30.21503 z"
   style="fill:#f3f3f5;fill-opacity:1;stroke:#9ca2a6;stroke-width:1;stroke-miterlimit:4;stroke-dasharray:none;stroke-opacity:1" /></svg>
