<?xml version="1.0" encoding="UTF-8" standalone="no"?>
<svg
   xmlns:dc="http://purl.org/dc/elements/1.1/"
   xmlns:cc="http://creativecommons.org/ns#"
   xmlns:rdf="http://www.w3.org/1999/02/22-rdf-syntax-ns#"
   xmlns:svg="http://www.w3.org/2000/svg"
   xmlns="http://www.w3.org/2000/svg"
   xmlns:sodipodi="http://sodipodi.sourceforge.net/DTD/sodipodi-0.dtd"
   xmlns:inkscape="http://www.inkscape.org/namespaces/inkscape"
   version="1.1"
   id="Layer_1"
   x="0px"
   y="0px"
   viewBox="0 0 1920 1080"
   style="enable-background:new 0 0 1920 1080;"
   xml:space="preserve"
   sodipodi:docname="USPlayFiverrLogo01_3.svg"
   inkscape:version="1.0.1 (3bc2e813f5, 2020-09-07)"
   inkscape:export-filename="F:\Dev\Projects\GitHub\UltraStar Play\UltraStar Play\Assets\Common\Graphics\Logos\USPlayFiverrLogo01_2\USPlayFiverrLogo01_3.png"
   inkscape:export-xdpi="96"
   inkscape:export-ydpi="96"><metadata
   id="metadata50"><rdf:RDF><cc:Work
       rdf:about=""><dc:format>image/svg+xml</dc:format><dc:type
         rdf:resource="http://purl.org/dc/dcmitype/StillImage" /><dc:title /></cc:Work></rdf:RDF></metadata><defs
   id="defs48"><linearGradient
   id="path6252_5_"
   gradientUnits="userSpaceOnUse"
   x1="-70.776901"
   y1="526.0575"
   x2="-76.975998"
   y2="528.77478"
   gradientTransform="matrix(-1.8941,0.7258,-0.7258,-1.8941,506.8248,1627.1179)"><stop
     offset="0"
     style="stop-color:#EEEEEC"
     id="stop1000" /><stop
     offset="1"
     style="stop-color:#D3D7CF"
     id="stop1002" /></linearGradient><linearGradient
   id="path6252_6_"
   gradientUnits="userSpaceOnUse"
   x1="-169.0137"
   y1="488.41479"
   x2="-175.21291"
   y2="491.13211"
   gradientTransform="matrix(1.8941,0.7258,0.7258,-1.8941,506.5671,1627.1179)"><stop
     offset="0"
     style="stop-color:#EEEEEC"
     id="stop1013" /><stop
     offset="1"
     style="stop-color:#D3D7CF"
     id="stop1015" /></linearGradient>
	
	

		
		
		
		
		
		
		
		
		
		
		
		
		
	<linearGradient
   id="linearGradient1108"
   gradientUnits="userSpaceOnUse"
   x1="-169.0137"
   y1="488.41479"
   x2="-175.21291"
   y2="491.13211"
   gradientTransform="matrix(1.8941,0.7258,0.7258,-1.8941,506.5671,1627.1179)"><stop
     offset="0"
     style="stop-color:#EEEEEC"
     id="stop2790-4" /><stop
     offset="1"
     style="stop-color:#D3D7CF"
     id="stop2792-8" /></linearGradient><linearGradient
   id="SVGID_1_-1"
   gradientUnits="userSpaceOnUse"
   x1="-69.353996"
   y1="535.70209"
   x2="1979.438"
   y2="544.25647"
   gradientTransform="translate(23.738438,46.536867)"><stop
     offset="0"
     style="stop-color:#183A67"
     id="stop4-2" /><stop
     offset="0.5307"
     style="stop-color:#528CB2"
     id="stop6-5" /><stop
     offset="1"
     style="stop-color:#1E4473"
     id="stop8-7" /></linearGradient></defs><sodipodi:namedview
   pagecolor="#ffffff"
   bordercolor="#666666"
   borderopacity="1"
   objecttolerance="10"
   gridtolerance="10"
   guidetolerance="10"
   inkscape:pageopacity="0"
   inkscape:pageshadow="2"
   inkscape:window-width="2560"
   inkscape:window-height="1411"
   id="namedview46"
   showgrid="false"
   showguides="true"
   inkscape:guide-bbox="true"
   inkscape:snap-global="false"
   inkscape:snap-grids="true"
   inkscape:lockguides="false"
   inkscape:zoom="0.51981286"
   inkscape:cx="627.65995"
   inkscape:cy="530.53175"
   inkscape:window-x="1911"
   inkscape:window-y="-9"
   inkscape:window-maximized="1"
   inkscape:current-layer="Layer_1"
   inkscape:document-rotation="0" />
<style
   type="text/css"
   id="style2">
	.st0{fill:url(#SVGID_1_);}
	.st1{fill:#FFFFFF;}
</style>
<linearGradient
   id="SVGID_1_"
   gradientUnits="userSpaceOnUse"
   x1="-69.354"
   y1="535.7021"
   x2="1979.438"
   y2="544.2565">
	<stop
   offset="0"
   style="stop-color:#183A67"
   id="stop4" />
	<stop
   offset="0.5307"
   style="stop-color:#528CB2"
   id="stop6" />
	<stop
   offset="1"
   style="stop-color:#1E4473"
   id="stop8" />
</linearGradient>

<rect
   x="-39.761562"
   y="-26.963133"
   class="st0"
   width="2047"
   height="1227"
   id="rect11"
   style="fill:url(#SVGID_1_-1)" />
<path
   class="st1"
   d="m 693.28,553.39 v -92.22 c 0,-16.42 1.86,-16.63 7.39,-17.24 l 1.7,-0.19 v -5.55 H 653.5 v 5.58 l 1.73,0.16 c 6.39,0.59 8.51,3.06 8.51,16.47 v 76.76 c 0,12.45 -7.24,35.99 -34.63,35.99 -19.55,0 -30.77,-12.48 -30.77,-34.25 v -81.6 c 0,-8.12 1.15,-12.66 7.21,-13.38 l 1.68,-0.2 v -5.54 h -48.48 v 5.64 l 1.79,0.11 c 4.63,0.28 8.45,1.49 8.45,13.56 V 536 c 0,40.08 29.25,54.31 54.31,54.31 23.07,0 35.7,-8.8 42.58,-17.84 0.46,5.28 1.52,10.19 2.18,12.57 l 0.39,1.4 h 35.26 v -5.67 l -1.83,-0.08 c -6.91,-0.3 -8.6,-5.66 -8.6,-27.3 z"
   id="path21"
   style="fill:#f3f3f5;fill-opacity:1;stroke:#9ca2a6;stroke-width:1;stroke-miterlimit:4;stroke-dasharray:none;stroke-opacity:1" /><path
   class="st1"
   d="M 749.14,567.12 V 422.27 l -37.57,8.04 1.05,5.79 1.85,-0.3 c 2.58,-0.42 4.37,-0.17 5.46,0.76 2.37,2.02 2.57,7.88 2.57,14.76 v 115.23 c 0,10.12 -0.6,13.7 -7.3,14.14 l -1.79,0.12 v 5.63 h 45.58 v -5.75 h -1.91 c -3.4,-0.01 -7.94,-1.41 -7.94,-13.57 z"
   id="path23"
   style="fill:#f3f3f5;fill-opacity:1;stroke:#9ca2a6;stroke-width:1;stroke-miterlimit:4;stroke-dasharray:none;stroke-opacity:1" /><path
   class="st1"
   d="m 828.72,570.38 c -5.38,3.65 -10.77,5.66 -15.17,5.66 -3.11,0 -5.39,-0.79 -6.99,-2.42 -3.53,-3.59 -3.41,-10.82 -3.31,-17.2 0.02,-1.04 0.03,-2.06 0.03,-3.03 v -54.35 h 24.94 v -13.1 h -24.94 v -38.23 l -25.86,17.47 v 20.76 h -15.85 v 13.1 h 14.89 v 60.54 c 0,20.41 9.23,30.33 28.2,30.33 8.45,0 20.18,-1.74 26.25,-5.07 l 0.8,-0.44 2.43,-13.6 -4.77,-0.87 z"
   id="path25"
   style="fill:#f3f3f5;fill-opacity:1;stroke:#9ca2a6;stroke-width:1;stroke-miterlimit:4;stroke-dasharray:none;stroke-opacity:1" /><path
   class="st1"
   d="m 892.82,482.08 c -11.53,0 -18.83,7.05 -22.84,12.71 v -11.98 l -34.48,7.03 1.05,5.76 1.8,-0.24 c 2.01,-0.27 3.3,-0.04 4.19,0.73 1.84,1.61 2.74,6 2.74,13.42 v 57.04 c 0,12.16 -3.05,12.97 -7.67,14.2 l -1.42,0.38 v 5.31 h 45.58 v -5.41 l -1.54,-0.3 c -5.54,-1.08 -8.12,-5.4 -8.12,-13.59 V 527.5 c 0,-13.17 6.45,-26.51 18.78,-26.51 5.23,0 8.66,2.24 10.18,6.64 l 0.44,1.28 h 5.98 v -22.5 l -0.91,-0.56 c -4.12,-2.54 -8.62,-3.77 -13.76,-3.77 z"
   id="path27"
   style="fill:#f3f3f5;fill-opacity:1;stroke:#9ca2a6;stroke-width:1;stroke-miterlimit:4;stroke-dasharray:none;stroke-opacity:1" /><path
   class="st1"
   d="m 993.71,555.91 v -33.25 c 0,-15.7 0,-39.42 -41.93,-39.42 -19.45,0 -33.06,9.15 -33.19,9.24 l -0.73,0.51 -1.77,21.23 5.42,0.83 1.07,-1.47 c 7.65,-10.67 16.76,-16.08 27.07,-16.08 11.71,0 17.04,8.03 17.04,15.49 v 13.37 c -39,0.35 -58.78,11.46 -58.78,33.03 0,18.19 13.8,29.94 35.17,29.94 11.96,0 21.75,-5.25 27.12,-11 0.48,2.24 0.88,4.6 1.15,6.46 l 0.23,1.64 h 33.53 v -5.6 l -1.75,-0.15 c -7.21,-0.59 -9.65,-6.85 -9.65,-24.77 z m -54.55,-9.43 c 5.87,-5.85 17.13,-6.27 25.48,-6.27 0.71,0 1.39,0 2.05,0.01 v 12.6 c 0,6.14 -3.16,22.07 -17.62,22.07 -8.99,0 -13.95,-6.19 -13.95,-17.42 0.01,-4.7 1.33,-8.29 4.04,-10.99 z"
   id="path29"
   style="fill:#f3f3f5;fill-opacity:1;stroke:#9ca2a6;stroke-width:1;stroke-miterlimit:4;stroke-dasharray:none;stroke-opacity:1" /><path
   class="st1"
   d="m 1071.38,500.49 c -1.85,-1.14 -3.59,-2.22 -5.04,-3.2 -2.86,-1.94 -5.53,-3.66 -8.11,-5.33 -12.39,-7.99 -19.86,-12.82 -19.86,-22.87 0,-9.08 6.2,-18.78 23.61,-18.78 14.69,0 25.27,8.19 28.3,21.9 l 0.33,1.5 h 5.96 v -35.33 h -5.49 l -0.57,0.67 c -0.31,0.36 -1.58,0.52 -3.81,0.5 h -0.54 c -1.77,0 -4.01,-0.5 -6.86,-1.13 -4.82,-1.07 -11.42,-2.54 -20.4,-2.54 -25.71,0 -43.67,16.85 -43.67,40.96 0,24.28 15.38,33.91 31.67,44.11 1.84,1.15 3.7,2.32 5.55,3.51 17.75,11.47 29.48,19.04 29.48,31.46 0,10.64 -11.22,18.97 -25.54,18.97 -18.28,0 -33.8,-12.56 -36.82,-24.28 l -0.37,-1.43 h -6.01 l 5.39,37.27 h 5.58 l 0.49,-0.73 c 0.8,-0.43 3.81,-0.43 5.45,-0.43 0.53,0 1.85,0.41 3.25,0.84 4.16,1.28 11.12,3.42 21.69,3.42 47.16,0 50.83,-31.21 50.83,-40.77 -0.02,-26.93 -21.6,-40.3 -34.49,-48.29 z"
   id="path31"
   style="fill:#f3f3f5;fill-opacity:1;stroke:#9ca2a6;stroke-width:1;stroke-miterlimit:4;stroke-dasharray:none;stroke-opacity:1" /><path
   class="st1"
   d="m 1179.23,570.38 c -5.38,3.65 -10.77,5.66 -15.17,5.66 -3.1,0 -5.39,-0.79 -6.99,-2.42 -3.53,-3.59 -3.41,-10.82 -3.31,-17.2 0.02,-1.04 0.03,-2.06 0.03,-3.03 v -54.35 h 24.94 v -13.1 h -24.94 v -38.23 l -25.86,17.47 v 20.76 h -15.85 v 13.1 h 14.89 v 60.54 c 0,20.41 9.23,30.33 28.2,30.33 8.45,0 20.18,-1.74 26.25,-5.07 l 0.8,-0.44 2.43,-13.6 -4.77,-0.87 z"
   id="path33"
   style="fill:#f3f3f5;fill-opacity:1;stroke:#9ca2a6;stroke-width:1;stroke-miterlimit:4;stroke-dasharray:none;stroke-opacity:1" /><path
   class="st1"
   d="m 1247.63,578.33 c 0.48,2.24 0.88,4.6 1.15,6.46 l 0.24,1.64 h 33.53 v -5.6 l -1.75,-0.15 c -7.22,-0.6 -9.66,-6.85 -9.66,-24.78 v -33.25 c 0,-15.7 0,-39.42 -41.93,-39.42 -19.45,0 -33.06,9.15 -33.19,9.24 l -0.73,0.51 -1.77,21.23 5.42,0.83 1.07,-1.47 c 7.65,-10.67 16.76,-16.08 27.07,-16.08 11.71,0 17.04,8.03 17.04,15.49 v 13.37 c -39,0.35 -58.78,11.46 -58.78,33.03 0,18.19 13.8,29.94 35.16,29.94 11.97,0.01 21.76,-5.23 27.13,-10.99 z m -31.04,-31.85 c 5.87,-5.85 17.13,-6.27 25.48,-6.27 0.71,0 1.39,0 2.05,0.01 v 12.6 c 0,6.14 -3.16,22.07 -17.62,22.07 -8.99,0 -13.95,-6.19 -13.95,-17.42 0.01,-4.7 1.33,-8.29 4.04,-10.99 z"
   id="path35"
   style="fill:#f3f3f5;fill-opacity:1;stroke:#9ca2a6;stroke-width:1;stroke-miterlimit:4;stroke-dasharray:none;stroke-opacity:1" /><path
   class="st1"
   d="m 1360.33,485.84 c -4.12,-2.53 -8.62,-3.76 -13.76,-3.76 -11.53,0 -18.83,7.05 -22.84,12.71 v -11.98 l -34.48,7.03 1.05,5.76 1.81,-0.24 c 2.01,-0.27 3.3,-0.04 4.19,0.73 1.84,1.61 2.74,6 2.74,13.42 v 57.04 c 0,12.16 -3.05,12.97 -7.67,14.2 l -1.42,0.38 v 5.31 h 45.58 v -5.41 l -1.54,-0.3 c -5.54,-1.08 -8.12,-5.4 -8.12,-13.59 V 527.5 c 0,-13.17 6.45,-26.51 18.78,-26.51 5.23,0 8.66,2.24 10.18,6.64 l 0.44,1.28 h 5.98 v -22.5 z"
   id="path37"
   style="fill:#f3f3f5;fill-opacity:1;stroke:#9ca2a6;stroke-width:1;stroke-miterlimit:4;stroke-dasharray:none;stroke-opacity:1" /><path
   class="st1"
   d="M 809.44696,710.01069 658.18788,622.70186 c -13.67546,-7.90423 -30.76374,1.95594 -30.76374,17.73222 v 174.68203 c 0,15.77628 17.08828,25.63645 30.76374,17.73222 l 82.88985,-47.85203 c -0.0724,-0.46685 -0.17708,-0.92565 -0.32196,-1.3925 -1.14298,-0.0724 -2.38254,-0.60369 -3.2438,-1.49713 l -7.72716,-7.72716 c -0.35416,-2.10083 0.24953,-4.30629 1.8513,-5.87586 1.4569,-1.49714 3.6704,-2.20546 5.87586,-1.77886 l 7.62252,7.65472 c 1.60177,1.56957 2.02837,3.87967 1.24761,5.87585 0.14489,0.46685 0.28172,0.95786 0.42661,1.4247 l 62.63021,-36.14056 c 13.67545,-7.90423 13.67545,-27.62458 0.008,-35.52881 z m -135.37817,24.03467 c -7.37299,-7.37299 -8.25839,-18.62567 -1.92373,-24.92813 6.4071,-6.4071 17.58733,-5.55389 25.03277,1.92374 3.34843,3.42088 5.37681,7.65472 5.90805,11.78392 -4.41897,0.42659 -8.54817,2.35033 -11.71147,5.44925 -3.13111,3.13111 -5.0951,7.373 -5.44926,11.75172 -4.20164,-0.61174 -8.40328,-2.52743 -11.85636,-5.9805 z m 55.61943,32.50235 c -1.56957,1.60177 -2.45498,3.52551 -2.63206,5.62634 l -35.67371,-28.55829 c -0.60368,-4.20164 0.82102,-8.40328 3.87968,-11.50219 2.99428,-2.99427 7.30055,-4.37872 11.5022,-3.84748 l 28.55828,35.74615 c -2.10887,0.18513 -4.13725,1.03833 -5.63439,2.53547 z"
   id="path41"
   style="fill:#f3f3f5;fill-opacity:1;stroke:#9ca2a6;stroke-width:1;stroke-miterlimit:4;stroke-dasharray:none;stroke-opacity:1" /><path
   class="st1"
   d="m 890.3098,661.60039 h -31.08112 v 1.60326 c 5.93487,0.95634 7.8476,4.47231 7.8476,12.34805 v 91.7806 c 0,8.49457 -2.8691,11.70113 -7.8476,12.34806 v 1.60327 h 37.01592 v -1.60327 c -4.8099,-0.64693 -7.8474,-2.55963 -7.8474,-12.82623 v -95.9435 c 2.0813,-0.3094 6.7225,-0.3094 8.1569,-0.3094 10.576,0 24.6679,7.36946 24.6679,23.8804 0,14.90768 -11.3635,22.89592 -23.2334,22.89592 -2.7284,0 -3.2064,0 -4.4724,-0.3094 l 4.8099,9.61968 c 0.647,0.16876 3.2066,0.47815 6.4131,0.47815 22.896,0 38.6194,-13.30439 38.6194,-32.68435 -0.028,-36.0878 -45.37,-32.88124 -53.0488,-32.88124 z"
   id="path13-5"
   style="fill:#f3f3f5;fill-opacity:1;stroke:#9ca2a6;stroke-width:1;stroke-miterlimit:4;stroke-dasharray:none;stroke-opacity:1" /><path
   class="st1"
   d="m 1008.5238,771.91167 h -13.1354 c -6.2444,0 -9.2821,-1.43452 -9.2821,-7.84762 v -88.91157 c 0,-10.57601 4.8099,-12.01052 7.5383,-12.01052 v -1.60327 h -37.3255 v 1.60327 c 5.2881,0 8.4945,4.4723 8.4945,12.34806 v 91.78058 c 0,8.49457 -2.8972,12.01053 -7.5383,12.34806 v 1.60327 h 74.1726 l 8.0163,-18.42363 -1.6033,-0.81569 c -4.3317,7.53822 -15.5546,9.92906 -29.3371,9.92906 z"
   id="path15-3"
   style="fill:#f3f3f5;fill-opacity:1;stroke:#9ca2a6;stroke-width:1;stroke-miterlimit:4;stroke-dasharray:none;stroke-opacity:1" /><path
   class="st1"
   d="m 1153.1827,771.30658 -41.6571,-109.5854 h -22.5864 v 1.60327 c 1.125,0 6.7225,1.1251 3.9941,8.49456 l -37.1567,100.27515 c -1.6033,4.50044 -4.9786,7.67886 -8.4947,7.67886 v 1.60327 h 22.4179 v -1.60327 c -3.6847,0 -5.2881,-3.99414 -3.8536,-8.01639 l 11.223,-31.08109 h 42.1353 l 11.0541,30.60292 c 1.6033,4.4723 0.9564,8.49456 -4.4724,8.49456 v 1.60327 h 36.0317 v -1.60327 c -4.4724,0.0282 -6.8631,-3.6566 -8.6352,-8.46644 z m -72.8789,-39.54751 17.6362,-48.85775 18.1142,48.85775 z"
   id="path17-6"
   style="fill:#f3f3f5;fill-opacity:1;stroke:#9ca2a6;stroke-width:1;stroke-miterlimit:4;stroke-dasharray:none;stroke-opacity:1" /><path
   class="st1"
   d="m 1236.304,663.20364 c 4.6411,0 7.8477,4.1629 4.163,11.05418 l -24.6679,46.60756 -26.5807,-48.21085 c -2.2502,-4.16289 -0.6471,-9.45089 4.3316,-9.45089 v -1.60327 h -39.4069 v 1.60327 c 2.0815,0 5.4569,1.12512 7.8478,5.288 l 36.8472,63.90607 v 37.15667 c 0,6.41311 -4.5005,9.76029 -7.6789,10.09783 v 1.60327 h 36.8473 v -1.60327 c -5.2881,0 -8.1853,-5.28801 -8.1853,-9.92906 v -36.20032 l 32.6844,-60.39013 c 3.3753,-6.41311 5.4568,-9.28213 10.576,-9.92906 v -1.60327 h -26.7494 v 1.60327 z"
   id="path19-4"
   style="fill:#f3f3f5;fill-opacity:1;stroke:#9ca2a6;stroke-width:1;stroke-miterlimit:4;stroke-dasharray:none;stroke-opacity:1" /></svg>
